<svg viewBox="0 0 256 256" xmlns="http://www.w3.org/2000/svg">
<path fill-rule="evenodd" clip-rule="evenodd" d="M256 0H0V256H256V0ZM109.968 120.416V151.778H138.509V137.019C143.401 136.199 148.022 134.696 152.371 132.51C156.856 130.323 160.73 127.522 163.991 124.105C167.389 120.552 170.039 116.452 171.942 111.806C173.981 107.023 175 101.762 175 96.0222C175 89.8726 173.845 84.2013 171.534 79.0083C169.224 73.8153 165.962 69.374 161.749 65.6842C157.536 61.9944 152.439 59.1246 146.459 57.0748C140.615 55.0249 134.092 54 126.888 54C119.821 54 113.637 54.9566 108.337 56.8698C103.036 58.783 98.4835 61.3112 94.6781 64.4543C90.8727 67.4608 87.7468 70.9455 85.3004 74.9086C82.99 78.735 81.2232 82.6981 80 86.7978L104.871 97.2521C106.23 92.0591 108.677 87.8911 112.21 84.7479C115.744 81.4681 120.297 79.8282 125.869 79.8282C130.762 79.8282 134.839 81.0582 138.101 83.518C141.499 85.9778 143.197 90.0776 143.197 95.8172V98.687C143.197 106.476 140.207 111.943 134.227 115.086C128.248 118.229 120.161 120.006 109.968 120.416ZM109.152 197.285C112.278 200.428 117.443 202 124.646 202C131.985 202 137.15 200.428 140.14 197.285C143.265 194.142 144.828 190.384 144.828 186.011V179.452C144.828 175.215 143.265 171.525 140.14 168.382C137.014 165.239 131.849 163.668 124.646 163.668C117.443 163.668 112.278 165.239 109.152 168.382C106.162 171.389 104.667 175.078 104.667 179.452V186.011C104.667 190.384 106.162 194.142 109.152 197.285Z" />
</svg>
